<svg xmlns="http://www.w3.org/2000/svg" width="35" height="35.001" viewBox="0 0 35 35.001">
  <g id="close" transform="translate(0 0)">
    <g id="Group_15" data-name="Group 15" transform="translate(0 0)">
      <g id="Group_14" data-name="Group 14" transform="translate(0)">
        <path id="Path_6" data-name="Path 6" d="M34.586.414a1.414,1.414,0,0,0-2,0L.414,32.583a1.414,1.414,0,0,0,2,2L34.586,2.413A1.414,1.414,0,0,0,34.586.414Z" transform="translate(0 0)"/>
      </g>
    </g>
    <g id="Group_17" data-name="Group 17" transform="translate(0 0.004)">
      <g id="Group_16" data-name="Group 16">
        <path id="Path_7" data-name="Path 7" d="M34.583,32.584,2.414.415a1.414,1.414,0,0,0-2,2l32.17,32.169a1.414,1.414,0,1,0,2-2Z" transform="translate(0 -0.001)"/>
      </g>
    </g>
  </g>
</svg>
